<svg viewBox="0 0 68 68" xmlns="http://www.w3.org/2000/svg" xmlns:xlink="http://www.w3.org/1999/xlink" width="68.000000" height="68.000000" fill="none" customFrame="url(#clipPath_2)">
	<defs>
		<clipPath id="clipPath_2">
			<rect width="67.000000" height="67.000000" x="0.500000" y="0.500000" rx="33.500000" fill="rgb(255,255,255)" />
		</clipPath>
	</defs>
	<rect id="Frame 93" width="67.000000" height="67.000000" x="0.500000" y="0.500000" rx="33.500000" stroke="rgb(203,211,248)" stroke-width="1" />
	<path id="1" d="M27.189 49.288C27.125 49.288 27.093 49.192 27.093 49C27.093 48.808 27.125 48.712 27.189 48.712C28.469 48.712 29.477 48.632 30.213 48.472C30.949 48.312 31.477 47.992 31.797 47.512C32.149 47.032 32.325 46.328 32.325 45.4L32.325 28.504C32.325 26.104 31.765 24.904 30.645 24.904C30.229 24.904 29.733 25.032 29.157 25.288C28.613 25.544 27.973 25.928 27.237 26.44C27.141 26.504 27.029 26.456 26.901 26.296C26.805 26.136 26.789 26.04 26.853 26.008L36.693 18.952C36.821 18.888 36.933 18.856 37.029 18.856C37.253 18.856 37.365 18.968 37.365 19.192L37.365 45.4C37.365 46.328 37.509 47.032 37.797 47.512C38.085 47.992 38.597 48.312 39.333 48.472C40.101 48.632 41.141 48.712 42.453 48.712C42.549 48.712 42.597 48.808 42.597 49C42.597 49.192 42.549 49.288 42.453 49.288C41.461 49.288 40.293 49.272 38.949 49.24C37.605 49.208 36.229 49.192 34.821 49.192C33.477 49.192 32.117 49.208 30.741 49.24C29.365 49.272 28.181 49.288 27.189 49.288Z" fill="rgb(236.611,239.911,255)" fill-rule="nonzero" />
</svg>
