<svg viewBox="0 0 68 68" xmlns="http://www.w3.org/2000/svg" xmlns:xlink="http://www.w3.org/1999/xlink" width="68.000000" height="68.000000" fill="none" customFrame="url(#clipPath_3)">
	<defs>
		<clipPath id="clipPath_3">
			<rect width="67.000000" height="67.000000" x="0.500000" y="0.500000" rx="33.500000" fill="rgb(255,255,255)" />
		</clipPath>
	</defs>
	<rect id="Frame 94" width="67.000000" height="67.000000" x="0.500000" y="0.500000" rx="33.500000" stroke="rgb(203,211,248)" stroke-width="1" />
	<path id="1" d="M25.2314 49.288C25.1034 49.288 24.9274 49.096 24.7034 48.712C24.5114 48.328 24.4794 48.072 24.6074 47.944C26.6234 45.384 28.3514 43.16 29.7914 41.272C31.2634 39.384 32.4474 37.688 33.3434 36.184C34.2714 34.68 34.9434 33.272 35.3594 31.96C35.8074 30.616 36.0314 29.24 36.0314 27.832C36.0314 25.496 35.5514 23.912 34.5914 23.08C33.6314 22.248 32.4634 21.832 31.0874 21.832C29.5834 21.832 28.3354 22.216 27.3434 22.984C26.3834 23.72 25.7594 24.744 25.4714 26.056C25.4394 26.12 25.3274 26.136 25.1354 26.104C24.9754 26.072 24.9114 26.008 24.9434 25.912C25.2954 23.736 26.2554 22.008 27.8234 20.728C29.3914 19.416 31.3594 18.76 33.7274 18.76C36.1914 18.76 38.0634 19.464 39.3434 20.872C40.6234 22.248 41.2634 24.024 41.2634 26.2C41.2634 27.736 40.9754 29.176 40.3994 30.52C39.8554 31.864 39.1354 33.16 38.2394 34.408C37.3434 35.624 36.3514 36.792 35.2634 37.912C34.2074 39.032 33.1674 40.136 32.1434 41.224C31.1194 42.28 30.2234 43.32 29.4554 44.344C29.3274 44.568 29.4074 44.68 29.6954 44.68C32.1274 44.68 34.1114 44.648 35.6474 44.584C37.1834 44.488 38.3674 44.328 39.1994 44.104C40.0314 43.848 40.5914 43.496 40.8794 43.048C41.1994 42.6 41.3594 42.008 41.3594 41.272C41.3594 41.176 41.4554 41.128 41.6474 41.128C41.8394 41.128 41.9354 41.176 41.9354 41.272L41.9354 48.76C41.9354 48.888 41.9034 49.016 41.8394 49.144C41.7754 49.24 41.6634 49.288 41.5034 49.288C39.9354 49.288 38.2074 49.288 36.3194 49.288C34.4314 49.288 32.5274 49.288 30.6074 49.288C28.6874 49.288 26.8954 49.288 25.2314 49.288Z" fill="rgb(236.611,239.911,255)" fill-rule="nonzero" />
</svg>
