<svg viewBox="0 0 68 68" xmlns="http://www.w3.org/2000/svg" xmlns:xlink="http://www.w3.org/1999/xlink" width="68.000000" height="68.000000" fill="none" customFrame="url(#clipPath_4)">
	<defs>
		<clipPath id="clipPath_4">
			<rect width="67.000000" height="67.000000" x="0.500000" y="0.500000" rx="33.500000" fill="rgb(255,255,255)" />
		</clipPath>
	</defs>
	<rect id="Frame 95" width="67.000000" height="67.000000" x="0.500000" y="0.500000" rx="33.500000" stroke="rgb(203,211,248)" stroke-width="1" />
	<path id="1" d="M33.7663 49.864C30.6943 49.864 28.0543 48.664 25.8463 46.264C25.7823 46.136 25.8143 46.008 25.9423 45.88C26.1023 45.752 26.2303 45.752 26.3263 45.88C27.0623 46.584 27.9263 47.096 28.9183 47.416C29.9423 47.736 30.8543 47.896 31.6543 47.896C33.2223 47.896 34.4543 47.592 35.3503 46.984C36.2463 46.376 36.8863 45.576 37.2703 44.584C37.6543 43.592 37.8463 42.504 37.8463 41.32C37.8463 40.008 37.6223 38.824 37.1743 37.768C36.7583 36.68 36.0063 35.816 34.9183 35.176C33.8623 34.504 32.3583 34.168 30.4063 34.168C30.2783 34.168 30.1983 34.088 30.1663 33.928C30.1343 33.736 30.2143 33.64 30.4063 33.64C32.1343 33.64 33.4623 33.368 34.3903 32.824C35.3503 32.248 36.0063 31.48 36.3583 30.52C36.7423 29.528 36.9343 28.408 36.9343 27.16C36.9343 24.952 36.5023 23.416 35.6383 22.552C34.7743 21.688 33.6863 21.256 32.3743 21.256C31.2543 21.256 30.1023 21.56 28.9183 22.168C27.7663 22.744 26.9183 23.656 26.3743 24.904C26.3423 25 26.2303 25.016 26.0383 24.952C25.8463 24.856 25.7663 24.776 25.7983 24.712C26.4703 22.92 27.5903 21.48 29.1583 20.392C30.7263 19.304 32.5343 18.76 34.5823 18.76C36.0543 18.76 37.3503 19.048 38.4703 19.624C39.6223 20.168 40.5183 20.952 41.1583 21.976C41.8303 22.968 42.1663 24.136 42.1663 25.48C42.1663 26.76 41.8463 27.992 41.2063 29.176C40.5983 30.36 39.7023 31.384 38.5183 32.248C37.3343 33.112 35.9263 33.704 34.2943 34.024L34.3903 33.64C36.3423 33.48 37.9583 33.752 39.2383 34.456C40.5503 35.128 41.5423 36.056 42.2143 37.24C42.8863 38.392 43.2223 39.608 43.2223 40.888C43.2223 42.68 42.8223 44.248 42.0223 45.592C41.2543 46.936 40.1503 47.992 38.7103 48.76C37.3023 49.496 35.6543 49.864 33.7663 49.864Z" fill="rgb(236.611,239.911,255)" fill-rule="nonzero" />
</svg>
