<svg viewBox="0 0 22 24" xmlns="http://www.w3.org/2000/svg" xmlns:xlink="http://www.w3.org/1999/xlink" width="22.000000" height="24.000000" fill="none" customFrame="#000000">
	<path id="Vector" d="M21.819 13.789C21.4607 12.6803 20.4631 11.9714 19.5669 11.484C16.5651 9.84455 12.9932 10.0126 9.98147 11.4581C10.7735 9.41623 10.7959 6.91553 10.2697 4.87824C9.48491 1.8726 7.1395 -0.0779207 4.10268 0.00238953C-1.75726 0.161164 0.221794 9.71901 0.7417 13.3542C1.21222 16.6202 2.09669 20.1446 1.75637 23.4687C1.55074 23.7558 2.0904 24.2515 2.73602 23.8481C2.77732 23.8213 2.81504 23.7927 2.84826 23.7613C4.90813 22.565 7.5328 22.5197 9.82703 22.3886C12.2919 22.2382 14.851 22.2114 17.2305 21.4582C19.1925 20.8286 20.9237 19.6138 21.5981 17.5128C21.9483 16.4309 22.1781 14.8976 21.8199 13.789L21.819 13.789Z" fill="rgb(153,226,141)" fill-rule="evenodd" />
</svg>
