<svg viewBox="0 0 65 69" xmlns="http://www.w3.org/2000/svg" xmlns:xlink="http://www.w3.org/1999/xlink" width="65.000000" height="69.000000" fill="none" customFrame="#000000">
	<path id="Vector" d="M64.4651 39.6433C63.4066 36.456 60.4591 34.4177 57.8114 33.0165C48.9425 28.3031 38.3889 28.7861 29.4907 32.9422C31.8307 27.0717 31.897 19.8822 30.3423 14.0249C28.0236 5.38373 21.094 -0.224022 12.1215 0.00686989C-5.1919 0.463346 0.655302 27.9421 2.19139 38.3933C3.58156 47.7829 6.19476 57.9157 5.18927 67.4725C4.58173 68.2978 6.17619 69.723 8.08369 68.5632C8.20573 68.4863 8.31715 68.404 8.41531 68.3138C14.5013 64.8743 22.256 64.7442 29.0344 64.3674C36.3169 63.9348 43.8779 63.8578 50.9083 61.6922C56.7051 59.8822 61.8201 56.3896 63.8125 50.3493C64.8472 47.2389 65.5264 42.8307 64.4678 39.6433L64.4651 39.6433Z" fill="rgb(153.383,225.577,140.986)" fill-rule="evenodd" />
</svg>
