<svg viewBox="0 0 225 170" xmlns="http://www.w3.org/2000/svg" xmlns:xlink="http://www.w3.org/1999/xlink" width="225.000000" height="170.000000" fill="none" customFrame="#000000">
	<path id="Lab_cake_logo" d="M15.3515 41.5062C13.5754 38.118 9.01917 37.5505 5.76264 38.983C1.95918 40.6651 0 44.9399 0 48.941C0 57.8321 9.24776 64.1068 16.7865 58.1272C25.7159 51.033 23.8249 36.8229 22.4809 26.9999C21.6611 20.9976 20.2716 14.4947 21.3882 8.44582C21.7066 6.67285 24.7357 -0.71771 27.1509 3.67171C28.5631 6.24036 27.9707 10.1053 28.0389 12.9248C28.4027 28.7502 28.4721 44.5982 28.2435 60.4235C28.2208 62.0161 31.5467 61.4474 31.5695 60.1057C31.7514 47.6674 31.7514 35.2303 31.5695 22.7933C31.4785 17.1315 31.7287 11.2881 31.159 5.64897C30.8179 2.30614 29.0179 -0.581511 25.2599 0.100676C15.5801 1.85214 17.629 16.018 18.4728 22.7252C19.2016 28.4097 20.2488 34.1169 20.2488 39.8695C20.2488 45.6221 19.429 51.7832 15.5346 55.9672C10.5918 61.2658 4.64722 56.3089 3.55333 50.6017C3.07461 48.0772 3.4169 45.2123 4.78365 43.0068C6.65188 39.983 10.569 39.5971 12.3224 42.9387C12.9148 44.0988 16.1043 42.9841 15.3527 41.5516L15.3515 41.5516L15.3515 41.5062ZM93.6205 159.281C105.804 165.12 116.243 167.492 130.085 167.741C142.119 167.563 151.176 165.764 162.326 161.244C172.925 156.588 180.353 151.581 188.653 143.524C196.725 135.238 201.74 127.823 206.404 117.241C210.298 107.703 212.128 99.8112 212.758 89.8233C212.777 89.5174 214.976 77.8844 215.098 81.502C215.139 82.6908 215.189 83.8628 215.176 85.0575C215.037 97.4002 213.14 106.686 208.489 118.12C203.698 128.99 198.545 136.61 190.253 145.12C181.729 153.398 174.094 158.541 163.207 163.324C151.752 167.968 142.45 169.816 130.085 170C118.265 169.824 109.245 168.124 98.4473 163.91C97.5939 163.577 88.2325 156.703 93.6205 159.281ZM181.456 20.1947C167.763 9.37174 151.112 3.18904 133.655 2.4495C132.687 2.40769 132.347 2.24401 132.013 1.9525C131.57 1.56541 131.151 1.15084 130.746 0.726711C130.346 0.308558 130.522 0.10665 131.848 0.132933C149.818 0.499714 167.08 6.46378 181.419 17.3107C182.431 18.0765 182.457 19.0203 182.505 20.2067C182.54 21.0968 182.493 21.0155 181.456 20.1947ZM118.728 108.074C115.904 111.326 115.266 115.964 115.631 120.125C115.927 123.672 117.18 128.287 120.733 129.948C123.944 131.449 127.179 129.812 128.864 126.923C130.732 123.695 131.096 119.602 130.687 115.964C130.095 110.712 127.429 105.959 123.056 102.935C121.986 102.185 119.025 103.708 120.482 104.708C126.678 108.983 129.001 117.623 126.632 124.672C126.246 125.787 125.721 126.946 124.902 127.81C124.537 128.174 124.491 128.174 124.15 128.355C124.309 128.265 124.423 128.356 124.103 128.333C124.195 128.333 123.626 128.265 123.467 128.197C120.482 127.287 119.435 123.013 119.071 120.375C118.547 116.646 118.865 111.871 121.462 108.892C122.783 107.346 119.616 107.073 118.751 108.074L118.728 108.074ZM80.7847 105.698C85.0897 105.744 87.664 109.598 88.4838 113.571C89.3719 117.847 88.643 122.94 85.7958 126.351C84.2244 128.22 82.4256 129.108 80.0786 129.131C79.9494 129.131 79.7878 129.144 79.6095 129.169C79.3426 120.246 79.2409 111.314 79.3043 102.382C79.3043 101.747 76.0023 102.223 76.0023 103.27C75.9101 119.141 76.3206 134.989 77.2314 150.837C77.2769 151.542 80.5801 150.95 80.5346 149.95C80.154 143.501 79.8608 137.046 79.6537 130.585C84.9161 130.189 89.4808 126.984 91.2401 121.747C92.766 117.192 92.4704 111.444 89.5083 107.52C87.8914 105.393 85.5002 104.248 82.8804 104.202C82.106 104.202 81.1725 104.342 80.5573 104.833C80.1014 105.183 80.0559 105.674 80.7847 105.674L80.7847 105.698ZM95.4205 106.43C97.57 106.037 99.7338 105.798 101.905 105.705C102.196 113.707 102.487 121.71 102.755 129.713C102.8 131.305 106.126 130.691 106.081 129.395C105.792 121.488 105.505 113.583 105.238 105.676C107.229 105.726 109.221 105.897 111.205 106.179C111.934 106.294 112.937 105.997 113.529 105.565C114.052 105.179 113.962 104.839 113.301 104.747C110.476 104.344 107.623 104.173 104.774 104.224C104.239 103.911 103.33 103.986 102.676 104.303C100.436 104.43 98.2031 104.693 95.9902 105.088C95.5115 105.179 94.2141 105.43 94.0777 106.043C93.9401 106.657 95.1477 106.498 95.4205 106.453L95.4205 106.43ZM59.8429 108.074C57.0185 111.326 56.3806 115.964 56.7456 120.125C57.0412 123.672 58.2943 128.287 61.8476 129.948C65.0586 131.449 68.2936 129.812 69.9787 126.923C71.847 123.695 72.2108 119.602 71.8015 115.964C71.2091 110.712 68.5438 105.959 64.1706 102.935C63.0995 102.185 60.1385 103.708 61.5963 104.708C67.7922 108.983 70.1152 117.623 67.7467 124.672C67.3589 125.787 66.8359 126.946 66.0149 127.81C65.6511 128.174 65.6056 128.174 65.2633 128.355C65.4237 128.265 65.5374 128.356 65.2178 128.333C65.3088 128.333 64.7391 128.265 64.5799 128.197C61.5963 127.287 60.5491 123.013 60.184 120.375C59.661 116.646 59.9794 111.871 62.5753 108.892C63.8965 107.346 60.731 107.073 59.8657 108.074L59.8429 108.074ZM25.5076 82.9345C23.1619 81.7517 20.3147 80.2057 19.745 77.3862C18.8342 72.771 24.6651 72.3612 27.9671 72.2931C33.9368 72.1796 39.9507 73.3301 45.8977 73.7435C45.9611 92.6906 46.7355 111.617 48.2387 130.501C48.2841 131.002 51.6101 130.456 51.5419 129.615C50.0877 111.089 49.317 92.5257 49.2081 73.9394C59.0375 74.4173 68.8597 73.9394 78.4414 71.5428C80.4006 71.0434 80.0355 69.679 78.0776 70.1784C70.7423 71.998 63.2263 72.6121 55.7104 72.4974C53.5322 72.4651 51.3635 72.3492 49.2009 72.1915C49.1985 71.5583 49.1961 70.9251 49.1961 70.2919C49.1961 69.8594 45.8929 70.2919 45.8929 71.1784L45.8941 71.9203C41.6993 71.5464 37.5128 71.084 33.2977 70.8152C28.5822 70.4974 21.6348 70.3146 17.854 73.7255C13.2535 77.8868 19.2663 82.5928 22.8423 84.4124C23.6621 84.8209 26.7152 83.5713 25.5076 82.9572L25.5076 82.9345ZM171.17 36.4083C175.475 36.4549 178.05 40.3091 178.869 44.2816C179.757 48.5575 179.029 53.6506 176.181 57.0615C174.61 58.9313 172.811 59.819 170.464 59.8429C170.335 59.8429 170.173 59.8548 169.996 59.8799C169.728 50.9565 169.626 42.0247 169.69 33.0942C169.69 32.4574 166.388 32.9341 166.388 33.9807C166.297 49.8514 166.706 65.6994 167.618 81.5474C167.664 82.2523 170.966 81.6609 170.92 80.6609C170.54 74.2118 170.246 67.7567 170.039 61.2956C175.302 60.9002 179.866 57.6947 181.626 52.4595C183.152 47.9028 182.856 42.155 179.894 38.2303C178.277 36.1037 175.886 34.9591 173.266 34.9125C172.492 34.9125 171.558 35.0523 170.943 35.5434C170.488 35.8946 170.441 36.3844 171.17 36.3844L171.17 36.4083ZM150.232 38.8599C147.408 42.112 146.77 46.7499 147.134 50.9111C147.43 54.4582 148.683 59.0735 152.236 60.7329C155.448 62.2347 158.682 60.5967 160.368 57.7091C162.235 54.4809 162.6 50.3878 162.189 46.7499C161.597 41.4967 158.933 36.7453 154.56 33.7214C153.489 32.9711 150.528 34.4944 151.985 35.4944C158.181 39.7691 160.504 48.4093 158.136 55.4582C157.748 56.5717 157.224 57.7318 156.404 58.5956C156.04 58.96 155.994 58.96 155.652 59.1416C155.812 59.0508 155.925 59.1416 155.607 59.1189C155.698 59.1189 155.128 59.0508 154.969 58.9827C151.985 58.0723 150.937 53.7976 150.573 51.1608C150.049 47.4309 150.369 42.6567 152.964 39.6783C154.286 38.1323 151.12 37.8587 150.254 38.8599L150.232 38.8599ZM115.316 50.8609C116.434 50.6829 117.466 50.5969 118.69 50.579C119.262 50.579 119.835 50.5957 120.406 50.6315C120.467 54.1548 120.859 57.6099 121.856 61.0651C122.06 61.8153 125.364 60.9062 125.159 60.1786C124.282 57.1392 123.846 54.0747 123.724 50.9541C124.339 50.8956 124.993 50.6495 125.432 50.3281C125.979 49.9195 125.82 49.5778 125.204 49.4643C124.702 49.3807 124.197 49.3102 123.688 49.254C123.687 48.8036 123.69 48.3532 123.701 47.9004C123.792 44.1036 124.065 40.1239 122.653 36.5087C121.992 34.8492 120.763 34.6222 119.122 35.0081C117.596 35.3713 116.116 36.1443 115.091 37.3271C113.018 39.7368 112.608 43.1932 112.29 46.2409C111.765 51.015 111.97 55.813 112.813 60.5418C112.927 61.224 116.252 60.4964 116.116 59.6553L116.116 59.678C115.604 56.7605 115.331 53.8119 115.316 50.8609ZM120.4 49.0808C118.701 49.0879 116.999 49.2433 115.327 49.5419C115.351 48.4715 115.408 47.401 115.501 46.3317C115.797 43.0116 116.139 38.1909 119.213 36.1216C119.533 35.94 119.396 36.0308 118.804 36.3952C119.008 36.6449 119.168 36.9185 119.283 37.2136C119.487 37.6676 119.646 38.1909 119.783 38.6688C120.057 39.646 120.239 40.6699 120.33 41.6699C120.557 43.7392 120.489 45.8311 120.421 47.9004C120.411 48.2947 120.404 48.6877 120.4 49.0808ZM187.352 36.1634C186.305 41.6269 186.487 47.1585 186.875 52.6888C187.057 55.4439 187.581 62.574 192.25 60.9528C194.618 60.1308 195.256 56.9098 195.826 54.8441C196.413 52.702 196.889 50.5276 197.333 48.3448C197.493 52.4846 197.787 56.6195 198.217 60.7425C198.377 62.3566 201.679 61.5382 201.52 59.856C200.7 51.7832 200.404 43.6436 200.632 35.5266C200.674 33.854 197.777 34.093 197.339 35.4179C196.126 37.0654 195.857 39.5373 195.439 41.4274C194.732 44.6711 194.141 47.9362 193.435 51.1787C192.934 53.4559 192.472 55.8453 191.49 57.9874C191.468 58.0328 191.463 58.0424 191.425 58.1236C191.425 58.1236 191.425 58.1236 191.334 57.9671C190.465 56.4917 190.396 54.3555 190.268 52.7342C189.789 47.137 189.653 41.4274 190.723 35.8743C191.042 34.2531 187.671 34.6521 187.375 36.1192L187.375 36.118L187.352 36.1634ZM96.5958 36.4083C100.901 36.4549 103.474 40.3091 104.294 44.2816C105.183 48.5575 104.454 53.6506 101.607 57.0615C100.034 58.9313 98.2354 59.819 95.8897 59.8429C95.7604 59.8429 95.5977 59.8548 95.4205 59.8799C95.1524 50.9565 95.0507 42.0247 95.1153 33.0942C95.1153 32.4574 91.8122 32.9341 91.8122 33.9807C91.7212 49.8514 92.1305 65.6994 93.0425 81.5474C93.088 82.2523 96.3912 81.6609 96.3445 80.6609C95.9651 74.2118 95.6707 67.7567 95.4648 61.2956C100.726 60.9002 105.292 57.6947 107.05 52.4595C108.576 47.9028 108.28 42.155 105.319 38.2303C103.702 36.1037 101.31 34.9591 98.6914 34.9125C97.9171 34.9125 96.9824 35.0523 96.3672 35.5434C95.9124 35.8946 95.8669 36.3844 96.5958 36.3844L96.5958 36.4083ZM75.6408 38.8599C72.8164 42.112 72.1785 46.7499 72.5435 50.9111C72.8391 54.4582 74.0922 59.0735 77.6455 60.7329C80.8565 62.2347 84.0915 60.5967 85.7766 57.7091C87.6449 54.4809 88.0087 50.3878 87.5994 46.7499C87.007 41.4967 84.3417 36.7453 79.9685 33.7214C78.8986 32.9711 75.9376 34.4944 77.3942 35.4944C83.5901 39.7691 85.9131 48.4093 83.5446 55.4582C83.1568 56.5717 82.6338 57.7318 81.814 58.5956C81.449 58.96 81.4035 58.96 81.0612 59.1416C81.2216 59.0508 81.3353 59.1416 81.0157 59.1189C81.1079 59.1189 80.5382 59.0508 80.379 58.9827C77.3942 58.0723 76.347 53.7976 75.9831 51.1608C75.4589 47.4309 75.7773 42.6567 78.3744 39.6783C79.6956 38.1323 76.5289 37.8587 75.6636 38.8599L75.6408 38.8599ZM139.012 128.002C139.338 122.308 138.204 116.417 137.364 110.856C136.203 103.171 134.791 95.4624 134.495 87.6859C134.335 83.2989 133.903 74.8629 138.663 72.4293C141.351 71.0422 145.496 72.0888 148.001 73.4305C151.122 75.0899 153.264 78.023 154.447 81.2738C156.771 87.6178 156.543 96.1672 152.762 101.943C151.806 103.42 154.812 103.125 155.404 102.738C163.08 97.6905 173.558 96.577 181.621 101.489C184.149 103.035 186.039 104.944 186.13 108.014C186.221 111.083 185.835 114.107 184.377 116.722C181.803 121.315 176.496 122.908 171.599 123.702C165.722 124.635 159.708 124.658 153.787 125.112C148.91 125.487 143.693 126.077 139.013 128.002L139.012 128.002ZM135.563 129.862C135.013 130.597 136.456 131.868 138.178 130.832L138.179 130.832L138.18 130.831C138.29 130.764 138.391 130.69 138.479 130.61L138.478 130.61C143.978 127.542 150.986 127.427 157.113 127.09C163.695 126.704 170.528 126.636 176.883 124.703C182.121 123.089 186.746 119.975 188.544 114.585C189.479 111.811 190.094 107.878 189.137 105.036C188.181 102.193 185.515 100.374 183.124 99.1242C175.109 94.9211 165.569 95.3501 157.529 99.0573C159.643 93.8196 159.704 87.4087 158.297 82.1842C156.202 74.4758 149.938 69.4735 141.829 69.679C126.181 70.0876 131.465 94.5986 132.854 103.921C134.111 112.297 136.472 121.334 135.564 129.86L135.563 129.862ZM220.526 37.7727C220.46 40.8444 220.48 43.9136 220.59 46.9793C218.989 46.4918 217.23 47.2373 216.476 48.8167C216.385 49.0055 216.302 49.1991 216.228 49.395L216.227 49.395C215.82 49.3914 215.404 49.297 215.018 49.1071C213.218 48.2576 212.375 46.0223 212.375 44.1669C212.375 39.9877 216.155 36.0332 220.526 37.7727ZM220.717 49.8311C220.915 53.5025 221.238 57.1703 221.691 60.8333C221.829 61.9241 225.154 61.175 224.994 59.9468C223.993 51.8525 223.605 43.689 223.878 35.5266C223.91 34.5768 222.265 34.6413 221.284 35.1395C214.965 33.492 208.403 38.8229 209.028 45.3747C209.323 48.3472 211.26 51.1859 214.38 51.7892C214.759 51.8645 215.147 51.9075 215.537 51.9183L215.538 51.9194C215.376 52.6411 215.211 53.3627 214.972 54.0472C214.153 56.3937 211.465 60.5286 208.458 58.2049C207.228 57.2431 204.403 58.9647 205.929 60.1487C208.708 62.2944 212.854 61.3112 215.268 59.0985C216.635 57.8465 217.523 56.193 218.138 54.4714C218.456 53.555 218.708 52.616 218.958 51.6781L219.1 51.0915L219.14 51.07L219.14 51.0688C219.733 50.745 220.271 50.3305 220.717 49.8311ZM126.941 37.1407C129.089 36.7476 131.254 36.5087 133.424 36.4155C133.716 44.419 134.006 52.4212 134.275 60.4235C134.32 62.0161 137.645 61.402 137.6 60.1057C137.313 52.2002 137.025 44.2935 136.758 36.3868C138.749 36.437 140.74 36.6079 142.726 36.891C143.455 37.0045 144.456 36.7082 145.049 36.2769C145.573 35.8898 145.482 35.5493 144.821 35.4585C141.996 35.0547 139.144 34.8839 136.293 34.9352C135.758 34.6222 134.849 34.6963 134.195 35.0141C131.956 35.1407 129.722 35.4036 127.511 35.799C127.032 35.8898 125.733 36.1407 125.597 36.7536C125.46 37.3677 126.667 37.2088 126.941 37.1634L126.941 37.1407ZM55.4626 35.9806C51.9093 39.3462 51.1349 44.3485 51.5682 49.0557C51.6376 49.812 51.7441 50.9637 51.9009 51.8382C52.6106 55.8023 54.352 60.4784 58.4008 61.2789C65.0156 62.5931 67.5779 56.8106 68.2422 51.2898C68.2996 50.8036 68.3439 50.0079 68.375 49.53C68.4408 48.487 68.4444 47.4775 68.4001 46.5539C67.9669 37.4585 61.3617 31.093 54.2562 26.2723C50.3606 23.6343 46.3752 20.9068 43.8464 16.8364C41.0674 12.38 40.4977 2.76611 47.6044 2.51641C56.9885 2.17472 98.3467 3.0612 107.731 2.28822C109.439 2.15202 110.396 0.0600553 108.118 0.242848C100.032 0.901141 59.8597 0.492545 51.7501 0.447146C49.2907 0.447146 46.7163 0.220148 44.3706 1.17473C39.9292 2.9931 37.7881 8.24153 38.6534 12.9033C40.293 21.816 49.153 25.6809 55.5081 30.7979C61.2959 35.4585 65.2023 41.9566 65.2082 49.1298C65.2094 49.8311 65.1723 50.849 65.0969 51.561C64.9533 52.9123 64.6697 54.2814 64.2316 55.6637C63.7996 57.0042 63.0935 58.6649 61.6585 59.187C58.56 60.3016 56.6475 55.9588 55.9186 53.7079C55.7044 53.0401 55.5093 52.3388 55.3441 51.616C55.1945 50.9673 55.0677 49.9912 54.9671 49.3149C54.3029 44.8049 54.8486 39.8324 58.1507 36.7094C59.5856 35.3677 56.3518 35.1622 55.4626 36.0045L55.4626 35.9806ZM39.837 59.678C39.3248 56.7605 39.0519 53.8119 39.0376 50.8609C40.1554 50.6829 41.187 50.5969 42.4114 50.579C42.9835 50.579 43.5567 50.5957 44.1276 50.6315C44.1887 54.1548 44.58 57.6099 45.577 61.0651C45.7816 61.8153 49.0848 60.9062 48.8802 60.1786C48.0029 57.1392 47.5672 54.0747 47.4452 50.9541C48.0603 50.8956 48.7138 50.6495 49.153 50.3281C49.7 49.9195 49.5408 49.5778 48.9256 49.4643C48.423 49.3807 47.9179 49.3102 47.4093 49.254C47.4081 48.8036 47.4117 48.3532 47.4224 47.9004C47.5134 44.1036 47.7863 40.1239 46.374 36.5087C45.7134 34.8492 44.4843 34.6222 42.8434 35.0081C41.3175 35.3713 39.837 36.1443 38.8126 37.3271C36.7397 39.7368 36.3292 43.1932 36.0108 46.2409C35.4866 51.015 35.6913 55.813 36.535 60.5418C36.6487 61.224 39.9735 60.4964 39.837 59.6553L39.837 59.678ZM39.0495 49.5419C39.0723 48.4715 39.1297 47.401 39.2219 46.3317C39.5187 43.0116 39.8598 38.1909 42.9344 36.1216C43.2539 35.94 43.1175 36.0308 42.5251 36.3952C42.7297 36.6449 42.8889 36.9185 43.0038 37.2136C43.2085 37.6676 43.3676 38.1909 43.5041 38.6688C43.7781 39.646 43.9601 40.6699 44.051 41.6699C44.2784 43.7392 44.2102 45.8311 44.142 47.9004C44.1324 48.2947 44.1252 48.6877 44.1216 49.0808C42.4222 49.0879 40.7203 49.2433 39.0495 49.5419Z" fill="rgb(245.211,246.968,255)" fill-rule="evenodd" />
</svg>
