<svg viewBox="0 0 42 42" xmlns="http://www.w3.org/2000/svg" xmlns:xlink="http://www.w3.org/1999/xlink" width="42.000000" height="42.000000" fill="none" customFrame="#000000">
	<rect id="telegram" width="42.000000" height="42.000000" x="0.000000" y="0.000000" />
	<path id="Vector" d="M0 20.16C0 10.6565 0 5.90474 2.95236 2.95236C5.90474 0 10.6565 0 20.16 0L21.84 0C31.3435 0 36.0953 0 39.0476 2.95236C42 5.90474 42 10.6565 42 20.16L42 21.84C42 31.3435 42 36.0953 39.0476 39.0476C36.0953 42 31.3435 42 21.84 42L20.16 42C10.6565 42 5.90474 42 2.95236 39.0476C0 36.0953 0 31.3435 0 21.84L0 20.16Z" fill="rgb(122.054,136.433,204.736)" fill-rule="nonzero" />
	<path id="Vector" d="M31.4473 10.1355L8.27149 19.2075C7.33886 19.6299 7.02341 20.476 8.04603 20.9351L13.9917 22.8531L28.3673 13.8346C29.1522 13.2684 29.9558 13.4194 29.2644 14.0422L16.9176 25.39L16.5297 30.1923C16.889 30.9338 17.5468 30.9372 17.9663 30.5687L21.3822 27.2878L27.2325 31.7347C28.5913 32.5512 29.3307 32.0243 29.623 30.5276L33.4603 12.0837C33.8587 10.2414 33.1793 9.4297 31.4473 10.1355Z" fill="rgb(255,255,255)" fill-rule="nonzero" />
</svg>
