<svg viewBox="0 0 288 304" xmlns="http://www.w3.org/2000/svg" xmlns:xlink="http://www.w3.org/1999/xlink" width="288.000000" height="304.000000" fill="none" customFrame="#000000">
	<defs>
		<linearGradient id="paint_linear_0" x1="3.81469727e-06" x2="288" y1="152" y2="152" gradientUnits="userSpaceOnUse">
			<stop stop-color="rgb(236.611,239.911,255)" offset="0" stop-opacity="1" />
			<stop stop-color="rgb(157.795,171.716,237.837)" offset="1" stop-opacity="1" />
		</linearGradient>
	</defs>
	<path id="Lab_cake_logo" d="M39.9009 288.092C41.4969 259.969 35.9404 230.872 31.8214 203.409C26.13 165.449 19.2064 127.377 17.7572 88.9679C16.971 67.3 14.8528 25.634 38.1876 13.6139C51.3659 6.76305 71.6907 11.9322 83.9713 18.5589C99.2735 26.7552 109.77 41.2418 115.573 57.298C126.968 88.6316 125.847 130.858 107.312 159.383C102.624 166.682 117.363 165.225 120.261 163.313C157.895 138.382 209.265 132.882 248.794 157.141C261.186 164.776 270.456 174.206 270.902 189.371C271.348 204.53 269.453 219.465 262.306 232.382C249.685 255.065 223.669 262.931 199.66 266.855C170.85 271.464 141.366 271.576 112.334 273.818C88.4246 275.671 62.8485 278.586 39.9068 288.092L39.9009 288.092ZM22.9909 297.28C20.2978 300.909 27.3681 307.188 35.8113 302.072L35.8172 302.072L35.823 302.066C36.3628 301.735 36.8556 301.369 37.2898 300.974L37.2841 300.974C64.2449 285.821 98.6046 285.254 128.64 283.59C160.911 281.684 194.408 281.348 225.564 271.8C251.246 263.828 273.918 248.445 282.737 221.826C287.319 208.124 290.335 188.698 285.641 174.66C280.953 160.622 267.886 151.635 256.163 145.463C216.869 124.703 170.099 126.822 130.682 145.132C141.044 119.263 141.343 87.5989 134.449 61.7945C124.175 23.7221 93.4648 -0.984816 53.7129 0.0301318C-23.0038 2.04823 2.90079 123.11 9.71289 169.155C15.8737 210.526 27.4502 255.16 22.9968 297.268L22.9909 297.28Z" fill="url(#paint_linear_0)" fill-rule="evenodd" />
</svg>
