<svg viewBox="0 0 101 109" xmlns="http://www.w3.org/2000/svg" xmlns:xlink="http://www.w3.org/1999/xlink" width="101.000000" height="109.000000" fill="none" customFrame="#000000">
	<path id="Vector" d="M100.169 62.625C98.5241 57.5899 93.9442 54.3701 89.8301 52.1564C76.0491 44.7107 59.6504 45.4737 45.824 52.0391C49.4599 42.7654 49.563 31.408 47.1473 22.1553C43.5444 8.50474 32.7768 -0.35389 18.835 0.0108524C-8.06742 0.731952 1.01824 44.1405 3.40508 60.6503C5.56519 75.4832 9.6257 91.4899 8.06333 106.587C7.11931 107.891 9.59684 110.142 12.5608 108.31C12.7504 108.188 12.9236 108.058 13.0761 107.916C22.5328 102.483 34.5824 102.277 45.115 101.682C56.4308 100.998 68.1795 100.877 79.1037 97.4558C88.111 94.5965 96.0589 89.0793 99.1548 79.5373C100.763 74.6237 101.818 67.6601 100.173 62.625L100.169 62.625Z" fill="rgb(203,211,248)" fill-rule="evenodd" />
</svg>
