<svg viewBox="0 0 42 42" xmlns="http://www.w3.org/2000/svg" xmlns:xlink="http://www.w3.org/1999/xlink" width="42.000000" height="42.000000" fill="none" customFrame="#000000">
	<rect id="vk" width="42.000000" height="42.000000" x="0.000000" y="0.000000" />
	<path id="Vector" d="M0 20.16C0 10.6565 0 5.90474 2.95236 2.95236C5.90474 0 10.6565 0 20.16 0L21.84 0C31.3435 0 36.0953 0 39.0476 2.95236C42 5.90474 42 10.6565 42 20.16L42 21.84C42 31.3435 42 36.0953 39.0476 39.0476C36.0953 42 31.3435 42 21.84 42L20.16 42C10.6565 42 5.90474 42 2.95236 39.0476C0 36.0953 0 31.3435 0 21.84L0 20.16Z" fill="rgb(61,71,116)" fill-rule="nonzero" />
	<path id="Vector" d="M22.3578 29.6467C12.9822 29.6467 7.63458 23.1549 7.41174 12.3525L12.1081 12.3525C12.2624 20.2812 15.7246 23.6396 18.467 24.332L18.467 12.3525L22.8893 12.3525L22.8893 19.1905C25.5974 18.8962 28.4423 15.7802 29.4021 12.3525L33.8244 12.3525C33.0874 16.5765 30.0022 19.6926 27.8082 20.9736C30.0022 22.0123 33.516 24.7302 34.853 29.6467L29.985 29.6467C28.9395 26.3575 26.3344 23.8127 22.8893 23.4664L22.8893 29.6467L22.3578 29.6467Z" fill="rgb(255,255,255)" fill-rule="nonzero" />
</svg>
